# xmcd
#
# Track frame offsets:
#   150
#   13813
#   30132
#   44783
#   63217
#   76973
#   91721
#   107457
#   122503
#   136354
#   151085
#   165331
#   178954
#   195937
#   212936
#   226759
#
# Disc length: 3219 seconds
#
# Revision: 0
# Processed by: cddbd v1.5.2PL0 Copyright (c) Steve Scherf et al.
# Submitted via: Media_Universe 3.0
#
DISCID=bb0c9110
DTITLE=T. Graham Brown - Deja Vu All Over Again - The Best Of T. Graham Brown
DYEAR=2007
DGENRE=Country
TTITLE0=I Tell It Like It Used To Be
TTITLE1=Drowning In Memories
TTITLE2=Hell And High Water
TTITLE3=Don't Go To Strangers
TTITLE4=I Wish That I Could Hurt That Way Again
TTITLE5=She Couldn't Love Me Anymore
TTITLE6=The Last Resort
TTITLE7=Darlene
TTITLE8=Come As You Were
TTITLE9=Never Say Never
TTITLE10=If You Could Only See Me Now
TTITLE11=Brilliant Conversationalist
TTITLE12=Moonshadow Road
TTITLE13=I'm Sending One Up For You
TTITLE14=With This Ring
TTITLE15=Don't Go Out (with Tanya Tucker)
EXTD=
EXTT0=
EXTT1=
EXTT2=
EXTT3=
EXTT4=
EXTT5=
EXTT6=
EXTT7=
EXTT8=
EXTT9=
EXTT10=
EXTT11=
EXTT12=
EXTT13=
EXTT14=
EXTT15=
PLAYORDER=
